<?xml version="1.0" standalone="no"?><!DOCTYPE svg PUBLIC "-//W3C//DTD SVG 1.1//EN" "http://www.w3.org/Graphics/SVG/1.1/DTD/svg11.dtd"><svg class="icon" width="200px" height="200.00px" viewBox="0 0 1024 1024" version="1.1" xmlns="http://www.w3.org/2000/svg"><path d="M728.579199 323.269386l-0.752665-6.397648c-0.376332-1.128997-0.752664-1.881661-1.128996-3.010658h-1.505329c1.505329 3.38699 2.634326 6.397648 3.38699 9.408306z" fill="#ECECEC" /><path d="M1024 512.188166C1024 229.186329 794.813671 0 512.188166 0S0 229.186329 0 512.188166c0 163.70452 76.771775 309.345094 196.069092 403.051819 36.880559-49.299522 93.330393-80.535097 154.296215-80.535097h87.68541v-32.740904c-78.653436-34.622565-136.984932-109.136347-158.43587-204.348401-16.558618-5.268651-49.299522-21.827269-57.202499-69.621463l-8.655641-59.08416s-6.397648-73.384785 52.686512-59.836825c-4.892319-18.816612-22.956266-92.577729-16.93495-162.951856C256.658581 164.457185 340.204337 176.876148 340.204337 176.876148s3.38699-170.478501 276.604189-105.373024c222.036016 52.686512 168.973172 246.497611 137.737597 323.645718v5.644984l-0.376332 10.16097c62.47115-16.93495 55.69717 58.707828 55.69717 58.707828l-8.655642 59.08416c-7.902977 46.665197-39.138552 63.223815-56.073502 69.245131-19.569276 98.599044-79.782433 174.618155-164.080853 207.735391v28.977582H673.634693c60.965821 0 117.415656 31.235575 154.296215 80.535097 119.297317-93.706725 196.069092-239.723631 196.069092-403.051819z" fill="#3DCBEA" /><path d="M500.521867 929.164278c-21.450937-2.634326-39.891216-14.676957-51.181183-31.98824v83.169423l51.181183-51.181183zM510.306505 918.250643c33.493569 0 60.589489-27.095921 60.589489-60.589489V809.114296c-18.063947 6.397648-37.256891 10.537302-57.578831 12.795296-22.203602-2.257993-43.654539-7.526645-63.600147-15.053289v50.804851c0 33.493569 27.095921 60.589489 60.589489 60.589489z" fill="#FFFDF3" /><path d="M322.14039 972.818817c-1.128997-1.881661-1.505329-4.515987-0.376333-6.773981l24.085263-41.772877c1.881661-3.010658 5.644983-4.139655 8.655641-2.257994 3.010658 1.881661 4.139655 5.644983 2.257994 8.655642l-22.579934 38.76222 13.171628 27.848585c28.977582 9.784638 59.08416 16.93495 90.319735 21.450937V845.994855H356.762955c-59.08416 0-113.652334 30.106578-149.027564 77.900772 37.633223 27.848585 79.029768 50.428519 123.06064 67.363469l-8.655641-18.440279zM671.3767 998.785741l13.924292-29.353914-22.203601-38.76222c-1.881661-3.010658-0.752664-6.77398 2.257993-8.655642 3.010658-1.881661 6.77398-0.752664 8.655641 2.257994l24.085263 41.772877c1.128997 2.257993 1.128997 4.892319-0.376332 6.773981l-9.784638 20.32194c46.288864-16.93495 89.567071-40.643881 128.705623-69.621463-35.37523-47.417861-89.943403-77.52444-148.651231-77.524439h-85.803749v173.112826c30.859243-4.139655 60.589489-10.913635 89.190739-20.32194z" fill="#A3BFE8" /><path d="M482.45792 963.410511l-32.740904 32.740904v24.085263c10.537302 1.128997 21.074605 2.257993 31.611907 3.010658l12.795296-47.417862c-4.892319-3.38699-8.655641-7.526645-11.666299-12.418963zM521.596472 928.411613l49.299522 49.299523v-82.793091c-10.537302 17.687615-28.224917 30.106578-49.299522 33.493568zM530.628445 975.453142l12.795296 47.417861c9.408306-0.376332 18.440279-1.505329 27.472253-2.257993v-26.719588l-29.353914-29.353914c-2.634326 4.515987-6.397648 8.279309-10.913635 10.913634z" fill="#FFFDF3" /><path d="M505.037854 979.969129L492.995222 1023.623668c6.397648 0.376332 12.418964 0.376332 18.816612 0.376332 6.397648 0 13.171628 0 19.569276-0.376332l-11.666299-43.654539c-2.634326 0.376332-4.892319 0.752664-7.526645 0.752664-2.257993 0-4.892319-0.376332-7.150312-0.752664zM511.811834 971.313488c9.784638 0 18.440279-5.644983 22.579934-13.924293l-22.956266-22.956266-22.579934 22.579934c4.139655 8.655641 12.795296 14.300625 22.956266 14.300625zM349.23631 840.726204h88.814407v-6.397648H350.365307c-60.965821 0-117.415656 31.235575-154.296215 80.535097l4.515987 3.38699c28.224917-37.633223 74.137449-68.868798 148.651231-77.524439zM673.634693 834.704888h-91.448732v6.397648H684.92466s83.169423 8.279309 135.855935 79.782433c2.257993-1.881661 4.892319-3.763322 7.150313-5.644984-36.880559-49.675854-93.330393-80.535097-154.296215-80.535097z" fill="#3B434F" /><path d="M667.98971 845.994855c59.08416 0 113.276001 30.106578 148.651231 77.524439 1.128997-1.128997 2.634326-1.881661 3.763322-3.010657-52.686512-71.503124-135.855935-79.782433-135.855935-79.782433h-102.362367v5.268651h85.803749zM356.762955 845.994855h81.664094v-5.268651H349.23631C274.722528 849.005513 228.809996 880.61742 200.585079 918.250643c2.257993 1.881661 4.892319 3.763322 7.150312 5.268651 35.37523-47.417861 89.943403-77.52444 149.027564-77.524439zM442.190371 803.845645c-1.505329-0.752664-2.634326-1.128997-4.139654-1.881661v30.482911h4.139654v-28.60125zM575.788313 834.704888h5.644984V805.350974c-2.257993 0.752664-4.515987 1.881661-6.773981 2.634326l1.128997 26.719588zM570.895994 834.704888h4.892319l-1.505329-26.719588-3.38699 1.128996v25.590592zM449.717016 806.856303c-2.634326-1.128997-4.892319-1.881661-7.150313-3.010658v28.60125h7.150313v-25.590592zM500.521867 929.164278l5.644983-5.644984 5.268652-4.892319 4.892319 4.892319 5.268651 5.268652c20.698273-3.38699 38.76222-16.182286 49.299522-33.493569v-37.633223c0 33.493569-27.095921 60.589489-60.589489 60.589489-33.493569 0-60.589489-27.095921-60.589489-60.589489v39.138552c11.289967 17.311283 29.353914 29.353914 50.804851 32.364572zM697.719956 972.818817c1.128997-1.881661 1.505329-4.515987 0.376332-6.773981l-24.085263-41.772877c-1.881661-3.010658-5.644983-4.139655-8.655641-2.257994-3.010658 1.881661-4.139655 5.644983-2.257993 8.655642l22.203601 38.76222-13.924292 29.353914c5.644983-1.881661 11.289967-3.763322 16.558618-5.644984l9.784638-20.32194zM357.139287 930.669607c1.881661-3.010658 0.752664-6.77398-2.257993-8.655642-3.010658-1.881661-6.77398-0.752664-8.655642 2.257994l-24.085262 41.772877c-1.128997 2.257993-1.128997 4.892319 0.376332 6.773981l8.655641 18.440279c5.644983 2.257993 11.289967 4.139655 16.93495 6.021316l-13.171628-27.848585 22.203602-38.76222zM449.717016 1020.236678v-24.085263l-0.376332 0.376332-8.27931-8.279309 8.27931-8.279309v-83.169423c-7.150312-11.289967-11.666299-24.461595-11.6663-38.76222v160.693863c4.139655 0.752664 8.279309 1.128997 12.042632 1.505329zM438.050717 832.446895h4.139654v2.257993h-4.139654z" fill="#3B434F" /><path d="M438.050717 845.994855v12.042631c0 14.300625 4.139655 27.472253 11.666299 38.76222v-64.352811h-7.150313V846.371187h-4.515986z" fill="#3B434F" /><path d="M438.050717 834.704888h4.139654v6.397648h-4.139654z" fill="#3B434F" /><path d="M438.050717 840.726204h4.139654v5.268651h-4.139654zM570.895994 895.294377v82.793091l10.537303 10.537302-8.279309 8.279309-2.257994-2.257993v26.719588c3.763322-0.376332 7.526645-0.752664 11.666299-1.505329v-173.112826h-1.128996v12.042632c0 12.795296-4.139655 25.590592-10.537303 36.504226zM581.433297 834.704888h1.128996v6.397648h-1.128996z" fill="#3B434F" /><path d="M581.433297 840.726204h1.128996v5.268651h-1.128996zM576.164645 840.726204h5.268652v-6.021316H575.788313z" fill="#3B434F" /><path d="M570.895994 857.661154v37.633223c6.77398-10.913635 10.537302-23.332598 10.537303-37.256891v-17.311282h-5.268652l-0.376332-6.397648h-4.892319v23.332598zM494.124219 975.453142l-12.795296 47.417861c1.128997 0 2.257993 0 3.010658 0.376333l12.418964-46.288865c-0.752664-0.376332-1.881661-0.752664-2.634326-1.505329zM525.736126 978.087468l10.913635 45.159868c2.257993 0 4.515987-0.376332 6.77398-0.376333l-12.795296-47.417861c-1.505329 1.128997-3.38699 1.881661-4.892319 2.634326z" fill="#3B434F" /><path d="M505.037854 979.969129c-3.010658-0.752664-5.644983-1.505329-8.279309-3.010658l-12.418964 46.288865c3.010658 0 5.644983 0.376332 8.655641 0.376332l12.042632-43.654539zM520.091143 979.969129l11.666299 43.654539c1.505329 0 3.38699 0 4.892319-0.376332l-10.913635-45.159868c-1.881661 0.752664-3.763322 1.505329-5.644983 1.881661zM514.44616 929.54061l27.472252 27.472253-12.795295 12.795296 1.505328 6.021315c4.515987-2.634326 8.279309-6.397648 10.913635-10.913634l29.353914 29.353914v-16.182286l-49.299522-49.299522c-2.257993 0-4.892319 0.376332-7.150312 0.752664zM494.124219 975.453142l1.128997-4.139654-14.676957-14.676957 25.214259-27.472253c-1.881661 0-3.38699-0.376332-5.268651-0.376332l-51.181183 51.181183v16.182286l32.740904-32.740904c3.38699 4.892319 7.150312 9.031974 12.042631 12.042631z" fill="#3B434F" /><path d="M505.790518 929.54061l-25.214259 27.472253 14.676957 14.676957 0.376332-1.881661 1.881661 1.881661 6.397648 4.139654 1.881661 0.376333-1.128997 4.139654c2.257993 0.376332 4.892319 0.752664 7.526645 0.752665s5.268651-0.376332 7.526645-0.752665l-1.128997-4.515987 6.021316-1.881661 4.139654-4.515986v0.376332l12.795296-12.795296-27.472253-27.472253c-1.505329 0-3.010658 0.376332-4.515987 0.376332-1.128997-0.376332-2.257993-0.376332-3.763322-0.376332z m28.60125 28.224917c-4.139655 8.279309-12.795296 13.924293-22.579934 13.924293-10.16097 0-18.816612-6.021316-22.956266-14.300625l22.579934-22.579934 22.956266 22.956266zM509.930173 925.024623l4.515987 4.515987c2.634326 0 4.892319-0.376332 7.526644-0.752664l-5.268651-5.268652-4.892319-4.892319-5.268651 4.892319-5.644984 5.644984c1.881661 0.376332 3.38699 0.376332 5.268651 0.376332l3.763323-4.515987z" fill="#3B434F" /><path d="M505.790518 929.54061c1.128997 0 2.634326 0.376332 3.763322 0.376332 1.505329 0 3.010658 0 4.515987-0.376332l-4.515987-4.515987-3.763322 4.515987zM441.437707 988.248438l7.902977 8.279309 0.376332-0.376332v-16.182286zM573.153988 996.527747l8.279309-8.279309-10.537303-10.537302v16.182286zM525.736126 978.087468c1.881661-0.752664 3.38699-1.505329 4.892319-2.634326l-1.505328-6.021315-4.515987 4.515986 1.128996 4.139655zM495.253216 971.68982l-1.128997 4.139654c0.752664 0.376332 1.881661 1.128997 2.634326 1.505329l0.752664-3.010657-2.257993-2.634326z" fill="#3B434F" /><path d="M503.908857 975.453142l-6.397648-4.139654-1.881661-1.881661-0.376332 1.881661 2.257993 2.257993-0.752664 3.010658c2.634326 1.128997 5.268651 2.257993 8.279309 3.010658l1.128996-4.139655h-2.257993zM524.983462 973.571481l-6.021316 1.881661 1.128997 4.515987c1.881661-0.376332 3.763322-1.128997 5.644983-1.881661l-1.128996-4.139655 4.515987-4.515986v-0.376333l-4.139655 4.515987z" fill="#3B434F" /><path d="M730.46086 586.701948h-0.752664c-1.505329 0-2.634326 0-3.763323 0.376332-1.505329 0-2.634326 0-3.763322 0.376332h-0.752665c-1.128997 0-1.505329 0 0 0h0.752665c0.752664 0 1.881661 0 3.763322-0.376332 1.128997 0 2.634326 0 3.763323-0.376332H732.342521c0-0.752664 0.376332-1.505329 0.376332-2.257994l6.773981-164.833517-0.376333-4.515986h-0.376332c-4.139655 1.128997-8.279309 2.634326-10.913635 3.38699-0.376332 0-0.752664 0.376332-0.752664 0.376332-3.010658 1.128997-4.139655 1.128997 0 0 0.376332 0 0.752664 0 0.752664-0.376332 2.257993-0.752664 6.021316-1.881661 10.913635-3.38699h0.376332l-10.16097-91.825065c-1.128997-3.010658-1.881661-6.021316-3.010658-9.031973-264.185226 35.751562-373.697905-84.29842-373.697905-84.29842 7.526645 120.049982-61.342154 155.048879-61.342154 155.048879l-1.505329 31.611907c2.257993 0.752664 4.139655 1.505329 5.644984 1.881662h0.376332c1.505329 0.376332 2.634326 0.752664 3.38699 1.128996 0.376332 0 0.752664 0 0.752665 0.376333 0.376332 0 0.376332 0 0 0 0 0-0.376332 0-0.752665-0.376333-0.752664-0.376332-1.881661-0.752664-3.38699-1.128996h-0.376332c-1.505329-0.376332-3.763322-1.128997-5.644984-1.881662l-0.752664 14.676957-3.010658-2.257993 6.397648 155.425211c0 0.752664 0.376332 1.505329 0.376332 2.634326H297.678795c3.010658 0 4.515987 0.376332 4.892319 0.376332 0.376332 0 0.376332 0 0 0-0.752664 0-2.634326 0-4.892319-0.376332h-5.268652c24.461595 121.178978 109.889011 208.864388 220.90702 220.530687 113.652334-12.418964 197.574421-99.728041 219.025358-220.530687h-1.505329c0-0.376332-0.376332-0.376332-0.376332-0.376332z m-219.025358-1.881661c5.268651-2.634326 21.074605-5.644983 22.956266-10.537303 2.257993-2.634326 0.752664-10.913635 0-13.54796-1.881661-7.150312-3.010658-13.171628-5.644984-19.945608-1.881661-4.515987-4.892319-9.031974-3.010658-14.300625 1.505329-0.752664 4.892319-1.505329 6.397648-2.634326h3.763323c7.526645 10.16097 10.537302 25.966924 14.676957 39.891217 1.128997 4.139655 0 11.666299-1.128997 14.676957-4.139655 10.913635-16.558618 10.913635-26.719588 15.805953-2.634326 1.128997-4.892319 3.763322-8.279309 4.139655-2.257993-1.881661-5.268651-2.257993-6.397648-5.644983-3.38699-4.139655 0.376332-6.397648 3.38699-7.902977z m-171.231165-171.98383l-21.450938-0.752664s26.719588-58.331496 137.361265-21.450937l-7.526645 10.537302-0.752664 1.881661-3.38699 3.38699s-41.396545-23.708931-80.91143-11.289967c-7.902977 4.139655-15.805954 9.784638-23.332598 17.687615z m76.01911 45.5362c0 7.902977-6.397648 14.676957-14.676957 14.676957h-14.676957c-7.902977 0-14.676957-6.397648-14.676957-14.676957 0-7.902977 6.397648-14.676957 14.676957-14.676957h14.676957c7.902977 0 14.676957 6.397648 14.676957 14.676957z m-56.449834 78.277104c0-22.956266 16.558618-24.085263 36.504226-24.085263 20.32194 0 36.504226 1.128997 36.504226 24.085263 0 23.708931-16.558618 24.085263-36.504226 24.085263-20.32194 0-36.504226-4.515987-36.504226-24.085263z m185.908122 185.155458h-66.987137V711.267916H545.681735v10.537303z m79.4061-67.739802c-18.816612 16.558618-62.094818 32.364572-111.770672 32.364572-50.052187 0-92.954061-15.805954-111.770673-32.364572 0 0-1.881661-5.268651 0.752665-8.279309 3.010658-3.010658 7.526645-2.257993 7.526644-2.257993 18.816612 16.558618 53.439177 30.106578 103.491364 30.106578s84.674752-13.54796 103.491363-30.106578c0 0 4.515987-1.881661 6.77398 0.376332 4.515987 4.515987 1.505329 10.16097 1.505329 10.16097z m13.924293-93.330393c-20.32194 0-36.504226-4.139655-36.504226-24.085263 0-22.956266 16.558618-24.085263 36.504226-24.085263 20.32194 0 36.504226 1.128997 36.504226 24.085263 0 23.708931-16.558618 24.085263-36.504226 24.085263z m-28.224917-102.362367c0-7.902977 6.397648-14.676957 14.676957-14.676957h14.676957c7.902977 0 14.676957 6.397648 14.676957 14.676957 0 7.902977-6.397648 14.676957-14.676957 14.676957h-14.676957c-8.279309-0.376332-14.676957-6.77398-14.676957-14.676957z m73.384785-45.5362c-7.526645-8.279309-15.429621-13.54796-23.708931-17.311282-39.514884-12.418964-80.91143 11.289967-80.91143 11.289966l-3.38699-3.38699-0.752664-1.881661-7.526645-10.913634c110.641676-37.256891 137.737596 21.827269 137.737597 21.827269l-21.450937 0.376332z" fill="#FFFDF3" /><path d="M750.406468 411.70746c0.752664-0.376332 1.128997-0.376332 1.128997-0.376332 0.752664-0.376332 1.505329-0.376332 2.257993-0.752664l0.376333-10.16097v-5.644984c-2.634326 6.77398-5.268651 12.795296-7.526645 17.687615 1.505329 0 2.634326-0.376332 3.763322-0.752665zM570.895994 802.340316v-4.139654c-17.687615 6.77398-36.880559 11.289967-56.826167 13.171628 17.687615 0 37.256891-2.257993 56.826167-9.031974zM727.826534 313.86108h-0.752664c0.376332 1.128997 0.752664 1.881661 1.128997 3.010658l-0.376333-3.010658zM449.717016 795.566336v5.268651c11.289967 3.763322 34.246233 10.16097 62.47115 10.537303-22.203602-2.257993-42.901874-7.902977-62.47115-15.805954zM442.190371 797.824329s2.634326 1.128997 7.150313 2.634326v-5.268651c-3.763322-1.505329-7.902977-3.38699-11.6663-4.892319v11.666299c1.505329 0.752664 2.634326 1.128997 4.139655 1.881661V797.824329zM570.895994 798.200662v4.139654c1.128997-0.376332 2.257993-0.752664 3.010658-1.128997l0.376332 6.773981c2.257993-0.752664 4.515987-1.881661 6.77398-2.634326v-11.289967c-3.010658 1.128997-6.77398 2.634326-10.16097 4.139655z" fill="#3B434F" /><path d="M574.282984 807.9853l-0.376332-6.773981c-1.128997 0.376332-2.257993 0.752664-3.010658 1.128997v7.150312c1.128997-0.752664 2.257993-1.128997 3.38699-1.505328zM449.717016 800.458655c-4.515987-1.505329-7.150312-2.634326-7.150313-2.634326v6.021316c2.257993 1.128997 4.892319 1.881661 7.150313 3.010658v-6.397648zM512.188166 811.37229h1.881661-1.881661zM570.895994 794.437339v3.763323c3.38699-1.128997 7.150312-2.634326 10.537303-4.139655v-3.010658c-3.38699 1.128997-7.150312 2.257993-10.537303 3.38699zM438.050717 788.792356v1.505329c3.763322 1.881661 7.526645 3.38699 11.666299 4.892319v-2.257994c-4.139655-1.128997-7.902977-2.634326-11.666299-4.139654zM616.808526 643.528115c-18.816612 16.558618-53.439177 30.106578-103.491363 30.106578s-84.674752-13.54796-103.491364-30.106578c0 0-4.515987-0.752664-7.526644 2.257993s-0.752664 8.279309-0.752665 8.279309c18.816612 16.558618 62.094818 32.364572 111.770673 32.364572 50.052187 0 92.954061-15.805954 111.770672-32.364572 0 0 3.010658-5.644983-1.505329-9.784638-1.881661-2.634326-6.77398-0.752664-6.77398-0.752664zM479.07093 711.267916h66.987137v10.537303h-66.987137z" fill="#3B434F" /><path d="M255.153252 481.705255c0.376332 11.289967 3.38699 46.288864 3.386991 46.288865s-2.634326 2.257993-5.268652 2.257993c-2.257993 0-5.268651-2.257993-5.268651-2.257993l-5.268651-51.557516s5.644983-20.698273 29.353914-14.676957l-1.505329-37.256891c-11.666299-2.257993-45.159868-5.644983-43.654539 36.504227 0 0 7.526645 73.761117 10.537303 80.535097 0 0 14.676957 32.740904 39.891216 42.14921l-4.515987-106.502021c-7.150312-1.505329-18.063947-2.634326-17.687615 4.515986zM273.2172 477.189269l4.515986 106.502021c0.376332 0 0.376332 0 0.752665 0.376332-1.881661-35.37523-2.634326-71.126792-4.139655-106.502021-0.376332 0-0.752664-0.376332-1.128996-0.376332z" fill="#FFFDF3" /><path d="M277.733186 587.454612c-27.848585-7.902977-42.901874-33.869901-49.299522-54.944505-6.77398-21.827269-5.644983-41.020213-5.644983-41.020214-1.128997-6.397648-1.881661-12.042631-2.257994-17.311282-0.376332-2.634326-0.376332-5.268651-0.376332-7.526645v-6.77398c0.376332-8.655641 1.881661-15.805954 4.139655-21.450937 4.515987-11.289967 12.418964-16.558618 20.32194-18.816612l5.644983-1.128996c0.752664 0 1.881661 0 2.634326-0.376333h2.634326c3.38699 0 6.397648 0.752664 8.655641 1.505329 3.38699 1.128997 5.268651 2.257993 6.397648 3.010658l-0.376332-6.397648-3.010658-2.257993-1.128997-4.515987c-58.707828-13.924293-52.686512 59.836825-52.686512 59.836825l8.655641 59.08416c7.902977 47.794193 40.643881 64.352811 57.202499 69.621463-0.752664-3.010658-1.505329-6.021316-1.881661-9.031974l0.376332-1.505329zM298.807791 419.610437c0.376332 0 0.752664 0 0.752665 0.376333 0-0.376332-0.376332-0.376332-0.752665-0.376333zM299.560456 419.610437c0.376332 0 0.376332 0 0 0zM295.420801 418.481441zM289.399485 416.599779c2.257993 0.752664 4.139655 1.128997 5.644984 1.881662-1.128997-0.752664-3.010658-1.128997-5.644984-1.881662zM289.399485 416.599779zM295.420801 418.481441c1.505329 0.376332 2.634326 0.752664 3.38699 1.128996-0.376332-0.376332-1.505329-0.752664-3.38699-1.128996zM292.410143 586.701948h0zM293.162808 586.701948h0zM294.291804 586.701948h0.752665-0.752665zM295.044469 586.701948h3.010658c-1.128997 0.376332-1.881661 0.376332-3.010658 0zM302.947446 587.454612c0.376332 0 0.376332 0 0 0zM298.055127 587.07828c2.257993 0 4.515987 0.376332 4.892319 0.376332-0.376332 0-1.881661-0.376332-4.892319-0.376332zM290.904814 586.701948h-0.376332 0.376332z" fill="#3B434F" /><path d="M289.399485 586.701948c-3.763322-0.376332-7.526645-1.128997-10.913634-2.257994 0 1.128997 0 2.257993 0.376332 3.763323-0.376332 0-0.376332 0-0.752664-0.376332v1.128996c0.752664 3.010658 1.128997 6.021316 1.881661 9.031974 6.021316 1.881661 9.784638 2.634326 9.784638 2.634325l-0.376333-13.924292zM291.281147 586.701948zM290.528482 586.701948H289.775818h0.752664zM289.775818 586.701948h-0.376333 0.376333zM271.711871 424.879089c1.881661 0.376332 3.010658 0.752664 3.010657 0.752664l-1.505328-6.77398-3.010658-2.257994 0.376332 6.397648c0.376332 0.376332 0.752664 0.376332 0.752664 0.376333 0.376332 0.752664 0.376332 1.128997 0.376333 1.505329zM291.281147 586.701948h0.752664-0.752664zM292.410143 586.701948h-0.752664 0.752664z" fill="#3B434F" /><path d="M237.84197 541.918412c-3.010658-6.77398-10.537302-80.535097-10.537303-80.535097-1.505329-42.14921 31.98824-38.76222 43.654539-36.504226v-1.881662c-1.128997-0.752664-3.38699-1.881661-6.397648-3.010657-2.257993-0.752664-5.268651-1.505329-8.655641-1.505329h-2.634326c-0.752664 0-1.881661 0-2.634325 0.376332-1.881661 0.376332-3.763322 0.376332-5.644984 1.128997-7.902977 2.257993-15.429621 7.526645-20.32194 18.816611-2.257993 5.644983-3.763322 12.418964-4.139655 21.450937v6.77398c0 2.257993 0 4.892319 0.376332 7.526645 0.376332 5.268651 1.128997 10.913635 2.257994 17.311283 0 0-1.128997 19.192944 5.644983 41.020213 6.397648 21.074605 21.450937 47.041529 49.299523 54.944506v-3.763323c-25.590592-9.784638-40.267549-42.14921-40.267549-42.14921z" fill="#3B434F" /><path d="M277.733186 587.454612c0.376332 0 0.376332 0 0.752665 0.376333 0-1.128997 0-2.257993-0.376332-3.763323-0.376332 0-0.376332 0-0.752665-0.376332l0.376332 3.763322zM271.711871 424.879089v-1.505329s-0.376332-0.376332-0.752665-0.376333v1.881662h0.752665zM243.486953 476.812936l5.268652 51.557516s2.634326 2.257993 5.268651 2.257993c2.257993 0 5.268651-2.257993 5.268651-2.257993S255.905917 492.995222 255.153252 481.705255c-0.376332-7.526645 10.16097-6.397648 18.063948-4.515986l-0.752665-15.429622c-23.332598-6.021316-28.977582 15.053289-28.977582 15.053289z" fill="#3B434F" /><path d="M273.2172 477.189269c0.376332 0 0.752664 0 1.128996 0.376332 0-4.892319-0.376332-10.16097-0.752664-15.053289-0.376332 0-0.752664-0.376332-1.128997-0.376333l0.752665 15.05329z" fill="#3B434F" /><path d="M780.513047 476.812936l-5.268652 51.181184s-2.634326 2.257993-5.268651 2.257993-5.268651-2.257993-5.268651-2.257993 3.010658-35.37523 3.38699-46.288865c0.376332-7.150312-9.408306-6.397648-16.93495-4.515986l-4.515987 106.502021c24.461595-10.16097 38.76222-41.772878 38.76222-41.772878 3.38699-6.77398 10.537302-80.535097 10.537302-80.535097 1.505329-41.020213-30.482911-38.76222-42.901874-36.504226l-1.505329 37.25689c23.332598-5.644983 28.977582 14.676957 28.977582 14.676957z" fill="#FFFDF3" /><path d="M752.288129 461.759647l1.505329-37.256891c-0.752664 0-1.128997 0.376332-1.881661 0.376333-0.752664 12.418964-1.505329 24.837927-1.881661 37.25689 0.752664 0 1.505329 0 2.257993-0.376332zM751.535465 477.189269c-0.752664 0-1.505329 0.376332-1.881661 0.376332-1.128997 35.751562-1.881661 71.503124-4.139655 106.502021 0.752664-0.376332 1.128997-0.376332 1.881661-0.752664l4.139655-106.125689z" fill="#FFFDF3" /><path d="M759.438442 419.98677c2.257993-0.752664 5.268651-1.505329 8.655641-1.505329h5.268651c1.881661 0.376332 3.763322 0.376332 5.644984 1.128996 7.902977 2.257993 15.805954 7.526645 20.32194 18.816612 2.257993 5.644983 3.763322 12.418964 4.139655 21.450937v6.77398c0 2.257993 0 4.892319-0.376332 7.526645-0.376332 5.268651-1.128997 10.913635-2.257994 17.311282 0 0 1.128997 19.192944-5.644983 41.020214-6.397648 21.074605-21.074605 46.288864-48.546858 54.568173v1.505329c-0.376332 3.010658-1.128997 5.644983-1.505329 8.655641 16.93495-5.644983 48.546858-22.579934 56.073502-69.24513l8.655642-59.08416s6.397648-76.019111-55.69717-58.707828l-0.376333 12.042631c1.128997-0.376332 3.010658-1.128997 5.644984-2.257993zM730.837192 586.701948h1.505329-1.505329zM730.837192 586.701948h-0.376332 0.376332zM729.708196 586.701948c-1.128997 0-2.634326 0-3.763323 0.376332 1.128997 0 2.257993 0 3.763323-0.376332zM738.740169 415.094451h-0.376332c0.376332 0.376332 0.376332 0 0.376332 0zM726.321205 418.857773c-4.139655 1.505329-3.010658 1.128997 0 0zM725.944873 587.07828c-1.505329 0-2.634326 0-3.763322 0.376332 1.128997-0.376332 2.257993-0.376332 3.763322-0.376332zM722.181551 587.454612h-0.752665 0.752665zM721.428886 587.454612c-1.505329 0-1.128997 0 0 0zM738.363837 415.470783c-5.268651 1.505329-8.655641 2.634326-10.913635 3.38699 2.634326-1.128997 6.77398-2.257993 10.913635-3.38699z" fill="#3B434F" /><path d="M727.450202 418.857773c-0.376332 0-0.752664 0.376332-0.752664 0.376332 0-0.376332 0.376332-0.376332 0.752664-0.376332zM730.46086 586.701948h-0.752664 0.752664zM750.406468 411.70746l-3.38699 1.128997c1.505329-0.752664 2.634326-0.752664 3.38699-1.128997zM750.406468 411.70746c0.376332 0 0.752664-0.376332 1.128997-0.376332 0.376332 0-0.376332 0-1.128997 0.376332zM732.718853 586.701948h1.505329-1.505329zM748.901139 426.008085s1.128997-0.376332 3.010658-0.752664v-1.505329s0.752664-0.376332 1.881661-1.128997l0.376333-12.042631c-0.752664 0.376332-1.505329 0.376332-2.257994 0.752664l-3.010658 14.676957zM747.019478 587.454612c-0.752664 0-1.128997 0.376332-1.881661 0.376333 0-1.128997 0-2.257993 0.376332-3.763323-3.38699 1.128997-7.150312 2.257993-10.913634 2.257994l-0.376333 13.924292s4.515987-0.752664 11.289967-3.010658c0.752664-3.010658 1.128997-5.644983 1.505329-8.655641v-1.128997zM732.342521 586.701948h0zM796.695333 461.383315s-7.526645 73.761117-10.537303 80.535097c0 0-14.300625 31.611907-38.76222 41.772878v3.763322c27.472253-8.279309 42.14921-33.493569 48.546858-54.568173 6.77398-21.827269 6.021316-41.020213 5.644984-41.020213 1.128997-6.397648 1.881661-12.042631 2.257993-17.311283 0.376332-2.634326 0.376332-5.268651 0.376332-7.526645v-6.77398c-0.376332-8.655641-1.881661-15.805954-4.139654-21.450937-4.515987-11.289967-12.418964-16.558618-20.321941-18.816611l-5.644983-1.128997h-5.268651c-3.38699 0-6.397648 0.752664-8.655642 1.505329-2.634326 0.752664-4.515987 1.881661-5.644983 2.257993v2.257994c11.666299-2.634326 43.654539-4.515987 42.14921 36.504226z" fill="#3B434F" /><path d="M745.514149 584.067622c0 1.128997 0 2.257993-0.376332 3.763323 0.752664 0 1.128997-0.376332 1.881661-0.376333v-3.763322c-0.376332 0-1.128997 0.376332-1.505329 0.376332zM753.793458 422.621095c-1.128997 0.752664-1.881661 1.128997-1.881661 1.128997v1.505329c0.376332 0 1.128997-0.376332 1.881661-0.376332v-2.257994zM743.632488 464.770305l-0.752664 14.676957s3.010658-1.128997 6.77398-1.881661c0-4.892319 0.376332-10.16097 0.752664-15.053289-2.257993 0.376332-4.515987 1.505329-6.77398 2.257993zM768.470415 481.705255c-0.376332 11.289967-3.38699 46.288864-3.38699 46.288865s2.634326 2.257993 5.268651 2.257993 5.268651-2.257993 5.268652-2.257993l5.268651-51.181184s-5.644983-20.32194-28.224917-15.053289l-0.752665 15.429622c7.150312-1.505329 16.93495-2.257993 16.558618 4.515986z" fill="#3B434F" /><path d="M752.288129 461.759647c-0.752664 0-1.505329 0.376332-2.257993 0.376332-0.376332 4.892319-0.376332 10.16097-0.752664 15.05329 0.752664 0 1.505329-0.376332 1.881661-0.376333l1.128996-15.053289zM514.069827 598.368247c3.38699-0.752664 5.644983-3.010658 8.279309-4.139655 10.16097-4.892319 22.579934-4.892319 26.719589-15.805953 1.128997-3.010658 2.257993-10.537302 1.128996-14.676957-4.139655-13.54796-7.150312-29.353914-14.676957-39.891217h-3.763322c-1.128997 1.128997-4.515987 1.881661-6.397648 2.634326-1.881661 5.268651 1.128997 9.784638 3.010658 14.300625 2.634326 6.397648 3.763322 12.418964 5.644984 19.945608 0.752664 3.010658 2.257993 10.913635 0 13.54796-1.881661 4.892319-17.687615 7.526645-22.956267 10.537303-3.010658 1.505329-6.397648 3.763322-3.763322 7.902977 1.505329 3.010658 4.139655 3.38699 6.77398 5.644983zM386.869533 443.6957c-7.902977 0-14.676957 6.397648-14.676957 14.676957 0 7.902977 6.397648 14.676957 14.676957 14.676957h14.676957c7.902977 0 14.676957-6.397648 14.676957-14.676957 0-7.902977-6.397648-14.676957-14.676957-14.676957h-14.676957zM639.764792 472.673282c7.902977 0 14.676957-6.397648 14.676957-14.676957 0-7.902977-6.397648-14.676957-14.676957-14.676957h-14.676957c-7.902977 0-14.676957 6.397648-14.676957 14.676957 0 7.902977 6.397648 14.676957 14.676957 14.676957h14.676957z" fill="#3B434F" /><path d="M432.782065 536.649761c0-22.956266-16.558618-24.085263-36.504226-24.085263-20.32194 0-36.504226 1.128997-36.504226 24.085263 0 19.569276 16.558618 24.085263 36.504226 24.085263 20.32194 0 36.504226-0.376332 36.504226-24.085263zM639.012128 512.564498c-20.32194 0-36.504226 1.128997-36.504226 24.085263 0 19.569276 16.558618 24.085263 36.504226 24.085263 20.32194 0 36.504226-0.376332 36.504226-24.085263 0-22.956266-16.558618-24.085263-36.504226-24.085263z" fill="#FFEBF0" /><path d="M698.47262 412.083793s-15.053289-54.944506-125.318632-19.192944l2.634325 8.279309 3.010658 4.515987v-2.634326s43.278207-24.837927 82.040426-7.526644c9.031974 3.010658 18.063947 7.526645 26.343256 15.053289l11.289967 1.505329z" fill="#3B434F" /><path d="M568.261669 390.632856l7.526644 10.913634-2.634325-8.279309c110.265344-35.751562 125.318633 19.192944 125.318632 19.192944l-11.666299-1.881661c-8.279309-7.150312-17.311283-12.042631-26.343256-15.053289 8.279309 3.763322 16.182286 9.031974 23.708931 17.311282l21.450937-0.752664s-26.719588-58.707828-137.361264-21.450937z" fill="#3B434F" /><path d="M578.422639 403.051819v2.634326l-3.010658-4.515987 0.752664 1.881661 3.38699 3.38699s41.396545-23.708931 80.91143-11.289967c-38.76222-16.558618-82.040426 7.902977-82.040426 7.902977zM337.946343 410.578464l-11.666299 1.881661s15.053289-54.568173 124.942301-19.192944l-2.634326 8.279309 7.526645-10.537302c-110.265344-36.880559-137.361264 21.450937-137.361265 21.450937l21.450938 0.752664c7.526645-7.902977 15.429621-13.54796 23.70893-17.311282-9.031974 2.634326-17.687615 7.526645-25.966924 14.676957z" fill="#3B434F" /><path d="M326.280044 412.460125l11.666299-1.881661c8.279309-7.150312 17.311283-12.042631 25.966924-14.676957 38.385888-16.93495 81.664094 7.526645 81.664094 7.526644v2.257994l3.010658-4.515987 2.634326-8.279309c-109.889011-34.998897-124.942301 19.569276-124.942301 19.569276z" fill="#3B434F" /><path d="M445.577361 403.428151s-42.901874-24.461595-81.664094-7.526644c39.514884-12.418964 80.91143 11.289967 80.91143 11.289967l3.38699-3.38699 0.752664-1.881662-3.010658 4.515987v-3.010658zM740.245498 394.396178c0-26.719588-4.139655-53.062845-12.042631-77.52444l0.752664 6.397648c6.77398 22.579934 10.913635 46.665197 11.289967 71.126792zM738.740169 415.094451l0.376332 4.515986v-4.515986h-0.376332z" fill="#3B434F" /><path d="M738.740169 415.094451c0.376332 0 0.376332 0 0.752665-0.376333l0.376332-10.913634v-9.408306c-0.376332-24.837927-4.515987-48.546858-11.666299-71.126792l10.537302 91.825065zM288.646821 430.900404l0.752664-14.676957c-1.128997-0.376332-2.634326-0.752664-4.139654-1.128996l0.376332 13.54796 3.010658 2.257993z" fill="#3B434F" /><path d="M291.281147 586.701948h1.505329-1.505329zM513.317163 811.37229h0.752664-2.257993 1.505329zM734.224182 586.701948h-0.752664 0.752664zM739.492834 420.739434v-1.128997l-6.773981 164.833517c0 0.752664-0.376332 1.505329-0.376332 2.257994-21.450937 121.178978-105.373025 208.488056-219.025358 220.530687-110.641676-11.666299-196.445424-99.351709-220.90702-220.530687h-1.505329 1.505329c0-0.752664-0.376332-1.505329-0.376332-2.634326l-6.397648-155.425211-12.042631-9.408306 1.505329 6.77398s-1.128997-0.376332-3.010658-0.752664h-0.752665l1.505329 37.256891c0.376332 0 0.752664 0.376332 1.128997 0.376332 0.376332 4.892319 0.376332 10.16097 0.752664 15.053289 1.128997 35.751562 1.881661 71.503124 4.139655 106.502021 3.38699 1.128997 7.150312 2.257993 10.913635 2.257994l0.376332 13.924292s-4.139655-0.376332-9.784638-2.634325c21.450937 94.835722 79.782433 169.349504 158.435869 204.348401v-13.54796c3.763322 1.505329 7.526645 3.010658 11.666299 4.139654v2.257994c19.569276 7.902977 40.643881 13.54796 62.471151 15.805953h2.257993c19.945608-2.257993 38.76222-6.77398 56.826167-13.171628v-3.763322c3.38699-1.128997 7.150312-2.257993 10.537302-3.38699v14.300625c83.922087-33.117236 144.135244-109.512679 164.080853-207.735392-6.77398 2.257993-11.289967 3.010658-11.289967 3.010658l0.376332-13.924292h-0.752664 0.752664c3.763322-0.376332 7.526645-1.128997 10.913635-2.257994 1.881661-35.37523 3.010658-71.126792 4.139654-106.502021-3.763322 0.752664-6.77398 1.881661-6.77398 1.881661l0.752665-14.676957c2.257993-1.128997 4.515987-1.881661 6.397648-2.257993 0.376332-12.418964 1.128997-24.837927 1.881661-37.256891-1.881661 0.376332-3.010658 0.752664-3.010658 0.752664l3.010658-14.676957c-0.376332 0-0.752664 0.376332-1.128997 0.376332-0.752664 0.376332-1.881661 0.752664-3.38699 1.128997-4.139655 9.031974-6.77398 14.300625-6.77398 14.300625l-2.257993-6.397648z" fill="#4C3F36" /><path d="M512.188166 811.37229c-28.224917-0.376332-51.181183-6.77398-62.47115-10.537303v6.021316c19.945608 7.526645 41.396545 12.795296 63.600147 15.053289 19.945608-2.257993 39.514884-6.397648 57.578831-12.795296v-7.150312c-19.569276 6.77398-39.138552 9.408306-56.826167 9.408306h-1.881661zM616.808526 71.503124C343.591327 6.397648 340.204337 177.628813 340.204337 177.628813s-83.922087-12.418964-90.696068 69.24513c-6.021316 70.374127 12.042631 144.135244 16.93495 162.951856 1.128997 0.376332 2.634326 0.752664 4.139655 1.128997 0.376332 0 1.128997 0.376332 1.505329 0.376332h0.376332c0.376332 0 0.752664 0.376332 1.505329 0.376332 0.376332 0 1.128997 0.376332 1.505329 0.376333 2.634326 0.752664 6.021316 1.881661 9.408306 3.010658l-0.376333-6.773981c0-4.515987-0.376332-9.031974 0-13.924292v9.408306l0.376333 11.289967c1.505329 0.376332 3.010658 0.752664 4.139654 1.128996l1.505329-31.611907S359.39728 349.612642 351.870636 229.562661c0 0 109.512679 120.049982 373.321573 84.298419H727.450202l0.376332 3.010658c7.902977 24.461595 12.418964 50.428519 12.042632 77.52444v13.924292l-0.376332 6.773981c1.128997-0.376332 2.634326-0.752664 4.139654-1.128997 0.752664 0 1.128997-0.376332 1.881661-0.376332 0.376332 0 1.128997-0.376332 1.505329-0.376333 2.257993-4.892319 4.892319-10.913635 7.526645-17.687614C785.781698 318.000735 839.220875 124.189636 616.808526 71.503124z" fill="#4C3F36" /><path d="M285.636163 428.642411l-0.376332-13.54796c-2.634326-0.752664-6.021316-1.881661-9.408306-3.010658-0.752664-0.376332-1.128997-0.376332-1.505329-0.376333-0.376332 0-1.128997-0.376332-1.505329-0.376332h-0.376332l1.505329 7.902977 11.666299 9.408306zM739.492834 420.739434l0.752664 6.021316s2.634326-5.268651 6.77398-14.300625c-0.376332 0-1.128997 0.376332-1.505329 0.376332-0.752664 0-1.128997 0.376332-1.881661 0.376332-1.128997 0.376332-2.634326 0.752664-4.139654 1.128997v6.397648z" fill="#3B434F" /><path d="M285.259831 415.094451s-0.376332 0 0 0l0.376332 13.171628-0.376332-13.171628zM739.492834 419.610437v1.128997l0.376332-5.644983-0.376332 4.515986zM739.492834 415.094451s0.376332 0 0 0c0.376332 0 0.376332 0 0 0l0.376332-6.773981c0-4.515987 0.376332-9.031974 0-13.924292v9.408306l-0.376332 11.289967zM284.507166 404.180816v-9.408306 13.924293l0.376333 6.77398-0.376333-11.289967zM270.582874 416.599779l-0.376332-6.021315c-1.505329-0.376332-2.634326-0.752664-4.139655-1.128997l1.128997 4.515987 3.38699 2.634325z" fill="#3B434F" /><path d="M289.399485 416.599779c-1.505329-0.376332-2.634326-0.752664-4.139654-1.128996 1.505329 0 3.010658 0.752664 4.139654 1.128996zM273.969864 411.70746c0.376332 0 1.128997 0.376332 1.505329 0.376333-0.376332 0-1.128997-0.376332-1.505329-0.376333zM272.464535 411.331128c0.376332 0 1.128997 0.376332 1.505329 0.376332-0.752664-0.376332-1.128997-0.376332-1.505329-0.376332zM272.088203 410.954796h0.376332c-0.376332 0.376332-0.376332 0.376332-0.376332 0z" fill="#3B434F" /><path d="M272.088203 410.954796c-0.376332 0-1.128997-0.376332-1.505329-0.376332l0.376332 6.021315 3.010658 2.257994-1.881661-7.902977zM284.883499 415.094451c-3.38699-1.128997-7.150312-2.257993-9.408306-3.010658 3.763322 1.128997 6.77398 2.257993 9.408306 3.010658zM285.259831 415.094451s-0.376332 0 0 0c-0.376332 0 0 0 0 0zM739.492834 415.094451c-0.376332 0-0.376332 0-0.752665 0.376332 0.376332-0.376332 0.752664-0.376332 0.752665-0.376332zM743.632488 413.589122c0.752664 0 1.128997-0.376332 1.881661-0.376333-0.376332 0-1.128997 0.376332-1.881661 0.376333zM743.632488 413.589122c-1.505329 0.376332-2.634326 0.752664-4.139654 1.128996 1.505329-0.376332 3.010658-0.752664 4.139654-1.128996zM747.019478 412.836457c-0.376332 0-1.128997 0.376332-1.505329 0.376332 0.752664-0.376332 1.128997-0.376332 1.505329-0.376332zM739.869166 415.094451s-0.376332 0 0 0c-0.376332 0 0 0 0 0zM739.869166 415.094451z" fill="#3B434F" /></svg>