<?xml version="1.0" standalone="no"?><!DOCTYPE svg PUBLIC "-//W3C//DTD SVG 1.1//EN" "http://www.w3.org/Graphics/SVG/1.1/DTD/svg11.dtd"><svg class="icon" width="200px" height="200.00px" viewBox="0 0 1024 1024" version="1.1" xmlns="http://www.w3.org/2000/svg"><path fill="#d4237a" d="M916.48 450.56c-17.92-5.12-38.4 5.12-43.52 23.04-10.24 35.84-25.6 71.68-46.08 102.4-66.56 110.08-181.76 171.52-314.88 171.52-135.68 0-250.88-64-314.88-171.52-17.92-30.72-33.28-66.56-46.08-102.4-5.12-17.92-25.6-30.72-43.52-23.04-17.92 5.12-30.72 25.6-23.04 43.52 12.8 40.96 30.72 81.92 51.2 117.76 71.68 120.32 197.12 194.56 340.48 204.8v168.96c0 20.48 15.36 35.84 35.84 35.84 20.48 0 35.84-15.36 35.84-35.84V819.2c143.36-10.24 268.8-87.04 340.48-204.8 23.04-35.84 38.4-76.8 51.2-117.76 7.68-20.48-2.56-40.96-23.04-46.08z m0 0M934.4 179.2C921.6 153.6 898.56 138.24 870.4 138.24h-10.24c-64 0-120.32 17.92-171.52 40.96-43.52-76.8-87.04-128-130.56-158.72-2.56-2.56-5.12-5.12-7.68-5.12-20.48-12.8-43.52-15.36-66.56-5.12-5.12 2.56-12.8 5.12-17.92 10.24C422.4 51.2 378.88 104.96 335.36 179.2c-51.2-20.48-107.52-38.4-168.96-38.4L153.6 138.24C125.44 138.24 102.4 153.6 89.6 179.2c-25.6 58.88-35.84 128-28.16 199.68 2.56 17.92 17.92 33.28 35.84 33.28h2.56c20.48-2.56 33.28-17.92 33.28-38.4-5.12-61.44 2.56-117.76 23.04-166.4h10.24c58.88 0 115.2 23.04 168.96 46.08 17.92 7.68 35.84 0 46.08-15.36 46.08-81.92 87.04-135.68 128-163.84 0 0 0-2.56 2.56-2.56l2.56 2.56C552.96 102.4 593.92 156.16 640 240.64c7.68 15.36 28.16 23.04 46.08 15.36 51.2-23.04 110.08-46.08 174.08-46.08h10.24c17.92 43.52 28.16 97.28 23.04 156.16 0 20.48 12.8 35.84 33.28 38.4 20.48 2.56 35.84-12.8 38.4-33.28 2.56-71.68-7.68-135.68-30.72-192z m0 0M903.68 791.04c-12.8-15.36-33.28-17.92-48.64-7.68L614.4 957.44c-15.36 12.8-20.48 33.28-7.68 48.64 7.68 10.24 17.92 15.36 28.16 15.36 7.68 0 15.36-2.56 20.48-7.68l238.08-176.64c17.92-7.68 20.48-30.72 10.24-46.08z m0 0M407.04 957.44l-238.08-176.64c-15.36-12.8-38.4-7.68-48.64 7.68-12.8 15.36-7.68 38.4 7.68 48.64l238.08 176.64c5.12 5.12 12.8 7.68 20.48 7.68 10.24 0 20.48-5.12 28.16-15.36 12.8-12.8 10.24-35.84-7.68-48.64z m0 0" /></svg>