<?xml version="1.0" standalone="no"?><!DOCTYPE svg PUBLIC "-//W3C//DTD SVG 1.1//EN" "http://www.w3.org/Graphics/SVG/1.1/DTD/svg11.dtd"><svg class="icon" width="200px" height="140.27px" viewBox="0 0 1460 1024" version="1.1" xmlns="http://www.w3.org/2000/svg"><path d="M737.879958 15.047807C371.944655 15.047807 75.287891 311.704571 75.287891 677.639874h105.416075c0-307.796049 249.445084-557.175992 557.175992-557.175992S1295.072235 369.925252 1295.072235 677.639874h105.39979c0-365.935303-296.640478-662.592067-662.592067-662.592067z" fill="#F0D0D3" /><path d="M1415.536118 692.703966h-135.527975v-15.064092c0-298.920449-243.19145-542.111899-542.111899-542.111899S195.768059 378.719425 195.768059 677.639874v15.064092H60.240084v-15.064092C60.240084 303.985241 364.225325 0 737.896244 0s677.639874 303.985241 677.639874 677.639874z m-105.595217-30.128184h75.304177c-8.028754-350.138363-295.337638-632.463882-647.348834-632.463883S98.559878 312.46999 90.531124 662.575782h75.320462c7.996183-308.610325 261.545215-557.094564 572.028372-557.094564s564.048475 248.484239 572.060943 557.094564z" fill="#684C4B" /><path d="M737.879958 210.815866c257.815834 0 466.824008 209.008175 466.824008 466.824008h90.351984c0.016286-307.714622-249.379942-557.175992-557.175992-557.175992S180.720252 369.925252 180.720252 677.639874h90.351983c0-257.848405 208.991889-466.824008 466.807723-466.824008z" fill="#EBDD9E" /><path d="M1310.120042 692.703966h-120.512739v-15.064092c0-249.168231-202.656828-451.759916-451.759916-451.759916S286.120042 428.536786 286.120042 677.639874v15.064092h-120.512739v-15.064092c0.048857-315.531664 256.757276-572.158656 572.272655-572.158656S1310.120042 362.10821 1310.120042 677.639874z m-90.57998-30.128184h60.256369c-7.996183-291.982824-248.028245-527.047807-541.916473-527.047807S203.975953 370.592958 195.97977 662.575782h60.25637c7.996183-258.760393 221.075734-466.824008 481.643818-466.824009s473.680206 208.063615 481.660104 466.824009z" fill="#684C4B" /><path d="M737.879958 210.815866c-257.832119 0-466.824008 209.008175-466.824008 466.824008h90.351983c0-207.917046 168.554979-376.472025 376.472025-376.472025s376.472025 168.554979 376.472025 376.472025h90.351983c0.016286-257.848405-208.991889-466.824008-466.824008-466.824008z" fill="#ED758D" /><path d="M1219.768059 692.703966h-120.512739v-15.064092c0.048857-199.220586-162.089634-361.407933-361.375362-361.407933S376.472025 478.419288 376.472025 677.639874v15.064092h-120.512739v-15.064092c0-265.714304 216.173797-481.888101 481.888101-481.888101s481.920672 216.173797 481.920672 481.888101z m-90.628837-30.128184h60.256369c-7.947327-242.165463-207.428481-436.695824-451.515633-436.695824S294.327937 420.410318 286.38061 662.575782h60.25637c7.963612-208.926747 180.410827-376.472025 391.242978-376.472026s383.311937 167.545278 391.259264 376.472026z" fill="#684C4B" /><path d="M737.879958 391.519832a286.120042 286.120042 0 0 1 286.136328 286.120042h90.351983c0-207.917046-168.554979-376.472025-376.472025-376.472025S361.424218 469.722828 361.424218 677.639874h90.351984a286.120042 286.120042 0 0 1 286.103756-286.120042z" fill="#AFCED3" /><path d="M1129.416076 692.703966h-120.512739v-15.064092c0-149.468367-121.603868-271.05595-271.05595-271.05595S466.824008 528.171507 466.824008 677.639874v15.064092h-120.512739v-15.064092c0-215.880658 175.639174-391.536118 391.536118-391.536118S1129.416076 461.759216 1129.416076 677.639874z m-90.710265-30.128184h60.25637c-7.89847-192.299246-166.828716-346.34384-361.082223-346.343841s-353.167467 154.044594-361.098508 346.343841h60.256369c7.914756-159.093101 139.843634-286.103756 300.842139-286.103757s292.959954 127.010656 300.825853 286.103757z" fill="#684C4B" /><path d="M496.952193 722.815866c0 157.969401-240.94405 286.120042-240.94405 286.120042s-241.025478-128.101784-241.025478-286.120042 233.420147-143.051878 241.025478-45.175992c7.523903-97.875887 240.94405-112.907408 240.94405 45.175992z" fill="#FFFFFF" /><path d="M256.008143 1023.983714a14.917523 14.917523 0 0 1-7.06791-1.77512C238.778078 1016.801807 0 887.967175 0 722.79958c0-88.821146 68.48055-131.19603 136.309679-133.817997 45.957696-1.856548 95.40049 14.249817 119.698464 47.227966 24.297974-32.929292 73.366201-49.035656 119.698463-47.227966 67.829129 2.621966 136.309679 44.996851 136.30968 133.817997 0 165.167594-238.778078 294.002227-248.940234 299.409014a14.917523 14.917523 0 0 1-7.067909 1.77512z m-112.760839-405.020515c-1.937975 0-3.859665 0-5.765069 0.113998-51.901905 2.003117-107.354051 30.29104-107.35405 103.722383 0 132.564013 186.843602 246.513693 225.879958 268.873692 39.085213-22.376284 225.879958-136.472534 225.879958-268.873692 0-73.431343-55.452145-101.719266-107.354051-103.722383-48.139954-1.823977-100.448996 19.966029-103.510671 59.702662a15.064092 15.064092 0 0 1-30.030472 0c-2.947676-38.156939-51.006202-59.800375-97.745603-59.800375z" fill="#684C4B" /><path d="M1445.664302 722.815866c0 157.969401-241.025478 286.120042-241.025478 286.120042s-240.862623-128.101784-240.862622-286.120042S1197.131206 579.763987 1204.720252 677.639874c7.523903-97.875887 240.94405-112.907408 240.94405 45.175992z" fill="#FFFFFF" /><path d="M1204.720252 1023.983714a15.031521 15.031521 0 0 1-7.084195-1.77512c-10.162155-5.406788-248.923948-134.24142-248.923948-299.409014 0-88.821146 68.399122-131.19603 136.309679-133.817997 45.957696-1.856548 95.40049 14.249817 119.698464 47.227966 24.281688-32.929292 73.382487-49.035656 119.682178-47.227966 67.845415 2.621966 136.309679 44.996851 136.309679 133.817997 0 165.167594-238.761793 294.002227-248.923948 299.409014a14.917523 14.917523 0 0 1-7.067909 1.77512z m-112.777124-405.020515c-1.92169 0-3.843379 0-5.765069 0.113998-51.901905 2.019403-107.272623 30.339896-107.272623 103.738669 0 132.564013 186.827316 246.513693 225.879958 268.873692 39.085213-22.376284 225.879958-136.472534 225.879958-268.873692 0-73.431343-55.452145-101.719266-107.354051-103.722383-48.221381-1.823977-100.448996 19.966029-103.510671 59.702662a15.064092 15.064092 0 0 1-30.030472 0c-3.012818-38.173224-51.071345-59.816661-97.82703-59.816661z" fill="#684C4B" /></svg>