<?xml version="1.0" standalone="no"?><!DOCTYPE svg PUBLIC "-//W3C//DTD SVG 1.1//EN" "http://www.w3.org/Graphics/SVG/1.1/DTD/svg11.dtd"><svg class="icon" width="200px" height="200.00px" viewBox="0 0 1024 1024" version="1.1" xmlns="http://www.w3.org/2000/svg"><path fill="#1afa29" d="M478.3 799.2c-68.7-6.9-135.5-41.2-183.1-94.1-45.8-51.1-73.1-119-74.9-186.2-1.6-24.6 2.8-52.8 12.3-79.5 12.3-40.3 31.8-77 51-110.7 27.1-48.1 61.4-95.9 108.1-150.3 20.5-23.6 41.5-47.9 65.4-70.7v-0.9l5-3.7c6.5-4.9 12.8-10.3 19.4-16.1 6.4-5.5 13-11.3 20.5-17.1l6.9-5.4 7.3 4.6c16.9 10.7 32 23.2 50.5 41.7 36.5 36.5 67.4 71.3 94.4 106.3C689 253.3 714.9 291 738.6 330l0.2 0.3c19.2 33.7 38.8 70.4 51 110.7 9.9 27.9 13.9 52.2 12.3 76.2-1.8 67.2-29 135-74.8 186.1-46.9 53.9-114.3 88.8-184.8 95.9l-13.7 1.4V680.4c-1.1-4.3-0.8-10.9 6.7-17.2l0.4-0.3L639.8 559l0.7-0.5c7.6-5.7 9.8-9.9 10.3-12.5v-0.6c1.8-7.2-1.7-17.7-9-20.4l-0.6-0.2-0.6-0.3c-5.8-2.7-12.6-1.7-17.3 2.7l-94.5 94.5V354.8c-0.1-9-6.8-16.5-15.7-17.7l-0.8-0.1-0.8-0.2c-1-0.2-2-0.4-3-0.4-6.7 0.2-12.7 4.3-15.4 10.4-1.1 5.1-1.1 12.2-1.1 17.9v163.4l-94.6-94.5c-3.3-2.8-7.5-4.3-11.8-4.2-2.5-0.1-5 0.4-7.2 1.4-8.3 4.2-13.1 13-10.6 19.6l0.2 0.7 0.2 0.7c1.2 4.8 3.3 6.7 4.9 7.7l1 0.7 94.3 94.3c3.1 2.8 7.1 4.4 11.2 4.7H492v241.3l-13.7-1.3z m0 0M507.6 959.1c-31.7 0-57.4-25.7-57.4-57.4V696l16.3 5.4c4.1 1.5 8.4 2.4 12.8 2.7h12.4v197.5c0 8.2 7.7 15.9 15.9 15.9h5c8.2 0 15.9-7.7 15.9-15.9V704.1h12.4c2.6-0.1 5.1-0.3 7.6-0.8 3-0.5 6-0.8 9-0.9h12.4v199.2c0 31.7-25.7 57.4-57.4 57.4h-4.9z m0 0" /></svg>