<?xml version="1.0" standalone="no"?><!DOCTYPE svg PUBLIC "-//W3C//DTD SVG 1.1//EN" "http://www.w3.org/Graphics/SVG/1.1/DTD/svg11.dtd"><svg class="icon" width="200px" height="200.00px" viewBox="0 0 1024 1024" version="1.1" xmlns="http://www.w3.org/2000/svg"><path d="M181.768467 580.680632S84.674752 23.708931 512.188166 70.374127v0.752665c427.513414-46.665197 330.419699 509.930173 330.419699 509.930172-19.945608 209.24072 24.461595 261.927233 48.546858 275.475193 82.793091-91.0724 133.22161-211.875046 133.221609-344.343991C1024 229.186329 794.813671 0 512.188166 0S0 229.186329 0 512.188166c0 132.468945 50.428519 253.271591 132.845277 344.343991 24.085263-13.54796 68.868798-66.234473 48.92319-275.851525z" fill="#3DCBEA" /><path d="M477.565601 977.711136c-2.634326-1.505329-4.892319-3.010658-7.526645-4.515987-10.537302 3.763322-21.450937 7.150312-33.493568 10.537302l9.408305 14.676957c15.429621-25.214259 31.611907-20.698273 31.611908-20.698272z" fill="#F3FCE8" /><path d="M540.789416 968.679162c-10.913635-4.139655-20.32194-7.902977-28.60125-11.289967v-0.376332c-8.279309 3.38699-18.063947 7.150312-28.977582 11.289967 7.902977 4.515987 17.311283 8.279309 28.977582 11.289967 11.289967-2.257993 20.698273-6.397648 28.60125-10.913635zM664.60272 1001.043734c-22.956266-3.38699-45.5362-8.279309-66.234473-13.924293l-22.203602 32.740904c30.482911-3.38699 59.836825-10.16097 88.438075-18.816611z" fill="#FFFDF3" /><path d="M546.434399 977.711136s16.182286-4.515987 31.235575 21.074605l9.408306-14.676957c-11.666299-3.38699-22.956266-7.150312-33.493568-10.537303-2.257993 1.505329-4.515987 3.010658-7.150313 4.139655z" fill="#F3FCE8" /><path d="M448.588019 1020.236678c18.440279 2.257993 37.256891 3.38699 56.073502 3.763322v-31.611907c-0.376332 0-41.772878-16.558618-56.073502 27.848585zM519.338479 992.388093v31.611907c19.192944-0.376332 37.633223-1.505329 56.449834-3.763322-14.676957-44.407203-56.449835-27.848585-56.449834-27.848585zM359.020948 1001.043734c28.60125 9.031974 58.331496 15.429621 88.814407 19.192944l-22.203602-33.117237c-20.698273 5.644983-43.278207 10.537302-66.610805 13.924293z" fill="#FFFDF3" /><path d="M426.008085 987.119441l-30.859243-45.912532s-10.537302-26.719588 6.021316-50.052186H356.386623c-46.665197 0-90.319735 18.816612-123.813304 50.052186 38.76222 25.590592 81.664094 45.912532 126.823961 59.836825 22.956266-3.38699 45.5362-8.279309 66.610805-13.924293z" fill="#E6FFCA" /><path d="M448.588019 853.145167v64.352812c1.128997 10.16097 6.77398 34.998897 34.622565 51.181183 10.913635-4.139655 20.698273-7.902977 28.977582-11.289967v0.376332c8.279309 3.38699 17.687615 7.150312 28.60125 11.289967 27.848585-16.182286 33.493569-41.020213 34.622565-51.181183v-37.633223l-1.505329-26.343256c-19.945608 6.021316-40.643881 9.408306-62.094818 9.408305-21.827269-0.376332-42.901874-4.139655-63.223815-10.16097z" fill="#FFFDF3" /><path d="M587.454612 918.250643c0 5.644983-3.763322 18.816612-3.763322 18.816612s-4.139655 7.902977-6.77398 11.289967c-4.892319 9.031974-12.418964 18.063947-22.579934 25.214259 10.537302 3.763322 21.450937 7.150312 33.493569 10.537303l29.353914-45.912533s16.93495-29.730246-15.429622-52.31018h-13.171628c-0.376332 1.505329-0.376332 3.38699-0.752664 6.021316v26.343256z" fill="#F3FCE8" /><path d="M629.22749 941.206909l-30.859243 45.912532c20.698273 5.644983 43.278207 10.537302 66.234473 13.924293 45.5362-14.300625 88.061742-34.622565 127.200294-60.213157-33.869901-31.235575-77.52444-50.052187-123.813304-50.052187h-44.783536c16.182286 23.708931 6.021316 50.428519 6.021316 50.428519z" fill="#E6FFCA" /><path d="M407.567806 938.196251l29.353914 45.912533c11.666299-3.38699 22.956266-7.150312 33.493568-10.537303-10.16097-7.150312-17.687615-16.182286-22.579933-25.214259-3.010658-3.38699-6.77398-11.289967-6.773981-11.289967s-3.763322-13.171628-3.763322-18.816612v-26.343256c0-2.257993-0.376332-4.515987-0.752664-6.021316h-13.171628c-32.740904 22.579934-15.805954 52.31018-15.805954 52.31018z" fill="#F3FCE8" /><path d="M727.826534 631.861816H720.676222c-0.376332 0-0.376332 0 0 0h7.150312c1.505329 0 3.38699-0.376332 4.515987-0.376333 1.128997-9.408306 1.881661-19.192944 2.257994-28.977581l3.38699-142.253584c-0.752664 0.376332-1.505329 0.376332-1.881662 0.752665-1.128997 0.376332-2.257993 0.752664-3.010657 0.752664-2.257993 0.752664-4.515987 1.505329-6.021316 1.881661h-0.376332c-0.752664 0.376332-1.505329 0.376332-2.257994 0.752665h-0.376332 0.376332c0.376332 0 1.128997-0.376332 2.257994-0.752665h0.376332c1.505329-0.376332 3.38699-1.128997 6.021316-1.881661 1.128997-0.376332 1.881661-0.752664 3.010657-0.752664 0.752664-0.376332 1.128997-0.376332 1.881662-0.752665v-3.38699h-1.881662v-50.052187c-0.376332-1.505329-0.376332-3.38699-0.752664-4.892319-17.311283 1.505329-32.740904-0.376332-32.740904-0.376332-99.351709-22.579934-106.878354-103.115031-106.878354-103.115031s-48.546858 40.643881-99.351709 51.933848c-63.976479 14.300625-85.051084 64.352811-85.051084 64.352811-18.816612-21.827269-22.579934-42.14921-22.579934-42.14921-44.783535-7.150312-78.653436 12.042631-101.23337 32.740905-1.881661 13.924293-2.634326 28.60125-2.257993 42.901874l0.376332 11.666299c1.128997 0.376332 2.634326 0.752664 3.763322 1.128997 0.752664 0.376332 1.505329 0.376332 2.257994 0.752664h0.376332c1.128997 0.376332 2.257993 0.752664 3.010658 1.128997 1.505329 0.376332 2.634326 0.752664 3.38699 1.128997 0.376332 0 0.752664 0.376332 0.752664 0.376332 0.376332 0 0.376332 0 0 0 0 0-0.376332 0-0.752664-0.376332-0.752664-0.376332-1.881661-0.752664-3.38699-1.128997-0.752664-0.376332-1.881661-0.752664-3.010658-1.128997h-0.376332c-0.752664-0.376332-1.505329-0.376332-2.257994-0.752664-1.128997-0.376332-2.257993-0.752664-3.763322-1.128997l3.38699 142.253583c0.376332 9.784638 1.128997 19.569276 2.257994 28.977582 2.634326 0 4.515987 0.376332 6.021315 0.376332 1.505329 0 2.634326 0 3.763323 0.376333h1.505329c0.376332 0 0.376332 0 0 0H301.065785c-0.752664 0-2.257993 0-3.763323-0.376333-2.257993 0-4.515987-0.376332-6.021315-0.376332 15.429621 122.307975 109.136347 215.638368 220.530687 215.638368s205.101066-92.954061 220.530687-215.262036c-1.881661 0.376332-3.38699 0.376332-4.515987 0.376333z m-216.767365-2.257994c5.268651-2.634326 21.074605-5.644983 22.956267-10.537302 2.257993-2.634326 0.752664-10.913635 0-13.547961-1.881661-7.150312-3.010658-13.171628-5.644984-19.945608-1.881661-4.515987-4.892319-9.031974-3.010658-14.300625 1.505329-0.752664 4.892319-1.505329 6.397648-2.634325h3.763322c7.526645 10.16097 10.537302 25.966924 14.676957 39.891216 1.128997 4.139655 0 11.666299-1.128996 14.676957-4.139655 10.913635-16.558618 10.913635-26.719589 15.805954-2.634326 1.505329-4.892319 3.763322-8.279309 4.139654-2.257993-1.881661-5.268651-2.634326-6.397648-5.644983-3.010658-3.763322 0.376332-6.397648 3.38699-7.902977zM325.903712 462.888644s11.289967-61.342154 111.018008-25.590592c5.268651 1.505329 10.913635 3.010658 16.558618 4.892319l-6.021316 7.526645-3.763322 4.892319s-66.610805-36.504226-112.523337 5.644983l-5.268651 2.634326z m92.201396 38.385887c0 11.666299-9.408306 21.074605-21.074605 21.074605-11.666299 0-21.074605-9.408306-21.074604-21.074605 0-11.666299 9.408306-21.074605 21.074604-21.074605 11.666299 0 21.074605 9.408306 21.074605 21.074605z m-58.707828 80.158766c0-22.956266 16.558618-24.085263 36.504227-24.085263 20.32194 0 36.504226 1.128997 36.504226 24.085263 0 23.708931-16.558618 24.085263-36.504226 24.085262-19.945608 0-36.504226-4.139655-36.504227-24.085262z m186.284455 185.155457h-66.987137v-10.537302H545.681735v10.537302z m79.4061-67.739801c-18.816612 16.558618-62.094818 32.364572-111.770672 32.364571-50.052187 0-92.954061-15.805954-111.770673-32.364571 0 0-1.881661-5.268651 0.752665-8.279309 3.010658-3.010658 7.526645-2.257993 7.526644-2.257994 18.816612 16.558618 53.439177 30.106578 103.491364 30.106579s84.674752-13.54796 103.491363-30.106579c0 0 4.515987-1.881661 6.77398 0.376332 4.139655 4.515987 1.505329 10.16097 1.505329 10.160971z m13.547961-93.330394c-20.32194 0-36.504226-4.139655-36.504227-24.085262 0-22.956266 16.558618-24.085263 36.504227-24.085263 20.32194 0 36.504226 1.128997 36.504226 24.085263 0 23.708931-16.558618 24.085263-36.504226 24.085262z m-30.482911-104.244028c0-11.666299 9.408306-21.074605 21.074605-21.074605 11.666299 0 21.074605 9.408306 21.074605 21.074605 0 11.666299-9.408306 21.074605-21.074605 21.074605-11.666299-0.376332-21.074605-9.784638-21.074605-21.074605z m82.793091-41.020213c-46.288864-42.525542-112.523337-5.644983-112.523337-5.644983l-3.763323-4.892319-6.021315-7.526645c5.644983-1.881661 11.289967-3.38699 16.558618-4.892319C684.92466 401.54649 696.214627 462.888644 696.214627 462.888644l-5.268651-2.634326z" fill="#FFFDF3" /><path d="M432.782065 581.433297c0-22.956266-16.558618-24.085263-36.504226-24.085263-20.32194 0-36.504226 1.128997-36.504226 24.085263 0 19.569276 16.558618 24.085263 36.504226 24.085262 19.945608 0 36.504226-0.376332 36.504226-24.085262zM638.635796 557.724366c-20.32194 0-36.504226 1.128997-36.504227 24.085263 0 19.569276 16.558618 24.085263 36.504227 24.085263 20.32194 0 36.504226-0.376332 36.504226-24.085263 0-22.956266-16.558618-24.085263-36.504226-24.085263z" fill="#FFEBF0" /><path d="M255.153252 526.865123c0.376332 11.289967 3.38699 46.288864 3.386991 46.288865s-2.634326 2.257993-5.268652 2.257993c-2.257993 0-5.268651-2.257993-5.268651-2.257993l-5.268651-51.557516s5.644983-19.945608 27.848585-15.053289c-0.376332-12.418964-1.128997-24.837927-1.881661-37.256891-12.795296-2.257993-43.278207-3.38699-42.14921 36.880558 0 0 7.526645 73.761117 10.537302 80.535098 0 0 13.924293 30.859243 38.009556 41.396545-1.881661-34.998897-2.634326-70.750459-4.139655-106.125689-6.77398-1.505329-16.182286-2.257993-15.805954 4.892319zM748.148475 620.195516v-1.881661 1.881661z" fill="#F7FBFB" /><path d="M402.299155 690.569644c-3.010658 3.010658-0.752664 8.279309-0.752665 8.279309 18.816612 16.558618 62.094818 32.364572 111.770673 32.364571 50.052187 0 92.954061-15.805954 111.770672-32.364571 0 0 3.010658-5.644983-1.505329-9.784638-2.257993-2.257993-6.77398-0.376332-6.77398-0.376333-18.816612 16.558618-53.439177 30.106578-103.491363 30.106579s-84.674752-13.54796-103.491364-30.106579c-0.376332-0.376332-4.892319-0.752664-7.526644 1.881662zM478.694598 756.051452H545.681735v10.537302h-66.987137z" fill="#4C3F36" /><path d="M397.030503 501.274531m-21.074604 0a21.074605 21.074605 0 1 0 42.149209 0 21.074605 21.074605 0 1 0-42.149209 0Z" fill="#4C3F36" /><path d="M629.22749 501.274531m-21.074605 0a21.074605 21.074605 0 1 0 42.14921 0 21.074605 21.074605 0 1 0-42.14921 0Z" fill="#4C3F36" /><path d="M578.046307 454.609335s66.610805-36.880559 112.523337 5.644983l4.892319 2.257994s-11.289967-61.342154-111.018009-25.590592c-5.268651 1.505329-10.913635 3.010658-16.558618 4.892319l6.021316 7.526645 4.139655 5.268651zM443.319368 454.609335l3.763322-4.892319 6.021316-7.526645c-5.644983-1.881661-11.289967-3.38699-16.558618-4.892319-99.728041-35.751562-111.018008 25.590592-111.018008 25.590592l4.892319-2.257994c46.665197-42.525542 112.899669-6.021316 112.899669-6.021315zM295.420801 463.264976c1.505329 0.376332 2.634326 0.752664 3.38699 1.128997-0.752664-0.376332-1.881661-0.376332-3.38699-1.128997zM292.033811 462.512312c1.128997 0.376332 2.257993 0.752664 3.010658 1.128996-0.752664-0.752664-1.881661-0.752664-3.010658-1.128996zM301.065785 632.238148c-1.128997 0-2.257993 0-3.763323-0.376332 1.505329 0.376332 3.010658 0.376332 3.763323 0.376332zM301.065785 632.238148h0zM292.786476 631.861816h-1.505329c0.376332-0.376332 0.752664 0 1.505329 0zM295.420801 631.861816h-2.634325 2.634325zM297.302462 631.861816h-1.881661 1.881661zM721.052554 632.238148h3.010658-3.010658zM728.955531 463.264976l3.38699-1.128997-3.38699 1.128997zM728.955531 463.264976h-0.376332 0.376332zM728.579199 463.264976c-0.752664 0.376332-1.505329 0.376332-2.257994 0.752665 0.752664-0.376332 1.505329-0.376332 2.257994-0.752665zM724.063212 464.770305c0.376332 0 1.128997-0.376332 2.257993-0.752664-1.128997 0.376332-1.881661 0.376332-2.257993 0.752664z" fill="#4C3F36" /><path d="M842.231533 581.056964S939.325248 24.461595 511.811834 71.126792v-0.752665C84.674752 23.708931 181.768467 580.680632 181.768467 580.680632c19.945608 209.993385-24.837927 262.679897-48.92319 275.851525 25.966924 28.60125 55.320838 54.191841 87.309078 76.395443 1.881661 1.505329 4.139655 2.634326 6.021316 4.139655 1.881661 1.505329 4.139655 2.634326 6.021315 4.139654 33.869901-31.235575 77.52444-50.052187 123.813304-50.052186h44.783536c-16.558618 23.708931-6.021316 50.052187-6.021316 50.052186l30.859243 45.912532 22.203602 33.117237h0.376332c14.676957-44.030871 56.073502-27.848585 56.073502-27.848585v31.611907h14.300625v-31.611907s41.772878-16.558618 56.449835 27.848585h0.376332l22.203602-32.740904 30.859242-45.912533s10.537302-26.719588-6.021315-50.052186h44.783535c46.665197 0 90.319735 18.816612 123.813304 50.052186l6.77398-4.515986c1.881661-1.128997 3.38699-2.257993 5.268652-3.763323 31.98824-22.203602 61.342154-47.794193 87.309077-76.395442-23.332598-13.924293-68.116134-66.610805-48.170525-275.851526z m-88.061742-111.39434c12.795296-2.257993 43.654539-3.38699 42.149209 36.880559 0 0-7.526645 73.761117-10.537302 80.535097 0 0-14.300625 30.859243-38.009555 41.396545 0-2.634326 0.376332-5.268651 0.376332-7.902976v-1.881662c0.376332-3.763322 0.376332-7.902977 0.376332-11.666299v-0.376332c1.128997-27.848585 1.881661-56.073502 3.010658-83.922087 7.526645-1.505329 16.93495-2.257993 16.558618 4.892319-0.376332 11.289967-3.38699 46.288864-3.38699 46.288864s2.634326 2.257993 5.268651 2.257993c2.257993 0 5.268651-2.257993 5.268651-2.257993l5.268652-51.557516s-5.644983-19.945608-27.848585-15.053289c0-12.795296 0.752664-25.214259 1.505329-37.633223zM270.959206 506.543183c-22.203602-4.892319-27.848585 15.053289-27.848585 15.053289l5.268651 51.557516s2.634326 2.257993 5.268652 2.257993c2.257993 0 5.268651-2.257993 5.268651-2.257993s-3.010658-35.37523-3.38699-46.288865c-0.376332-7.150312 9.031974-6.397648 16.558618-4.892319 1.128997 35.37523 1.881661 71.126792 4.139654 106.125689-24.085263-10.537302-38.009555-41.396545-38.009555-41.396545-3.010658-6.77398-10.537302-80.535097-10.537302-80.535098-1.505329-40.267549 28.977582-39.138552 42.149209-36.880558 0 12.418964 0.752664 24.837927 1.128997 37.256891z m117.791988-133.597942s3.38699 20.32194 22.579934 42.14921c0 0 20.698273-50.428519 85.051084-64.352812 50.804851-11.289967 99.351709-51.933848 99.351709-51.933848s7.526645 80.91143 106.878354 103.115031c0 0 15.429621 1.881661 32.740904 0.376333 0.376332 1.505329 0.376332 3.38699 0.752664 4.892319l1.881662 24.461595c0.376332 5.644983 0.376332 11.666299 0 17.311282l-0.376333 8.279309v3.38699l-3.38699 142.253584c-0.376332 9.784638-1.128997 19.569276-2.257993 28.977582-1.128997 0-2.634326 0-4.139655 0.376332 1.128997 0 2.634326 0 4.139655-0.376332-15.429621 122.307975-109.136347 215.262036-220.530687 215.262036s-205.101066-92.954061-220.530688-215.638369c-1.128997-9.408306-1.881661-19.192944-2.257993-28.977581l-3.38699-142.253584-0.376332-11.666299c-0.376332-14.676957 0.376332-28.977582 2.257993-42.901874 22.956266-20.698273 56.826167-39.891216 101.609702-32.740904z m57.578832 625.8405l-9.408306-14.676957-29.353914-45.912533s-16.93495-29.730246 15.429621-52.31018h13.171628c0.376332 1.505329 0.376332 3.38699 0.752665 6.021316v26.343256c0 5.644983 3.763322 18.816612 3.763322 18.816612s4.139655 7.902977 6.77398 11.289967c4.892319 9.031974 12.042631 18.063947 22.579934 25.214259 2.257993 1.505329 4.892319 3.010658 7.526645 4.515987 0-0.376332-16.182286-4.892319-31.235575 20.698273z m65.85814-18.816612c-11.666299-2.634326-21.074605-6.397648-28.977582-11.289967-27.472253-16.182286-33.117236-41.020213-34.622565-51.181183v-64.352812c20.32194 6.397648 41.396545 9.784638 63.223815 9.784638 21.450937 0 42.14921-3.38699 62.094818-9.408306l1.505329 26.343257v37.633223c-1.128997 10.16097-6.77398 34.998897-34.622565 51.181183-7.902977 4.515987-17.311283 8.655641-28.60125 11.289967z m104.244028-41.772878l-29.353914 45.912533-9.408306 14.676957c-15.053289-25.590592-31.235575-21.074605-31.235575-21.074605 2.634326-1.128997 4.892319-2.634326 7.150313-4.139655 10.537302-7.150312 17.687615-16.182286 22.579933-25.214259 3.010658-3.38699 6.77398-11.289967 6.773981-11.289967s3.763322-13.171628 3.763322-18.816612v-26.343256c0-2.257993 0.376332-4.515987 0.752664-6.021316h13.171628c33.117236 22.579934 15.805954 52.31018 15.805954 52.31018z" fill="#4C3F36" /><path d="M513.693495 643.151782c3.38699-0.752664 5.644983-3.010658 8.279309-4.139654 10.16097-4.892319 22.579934-4.892319 26.719589-15.805954 1.128997-3.010658 2.257993-10.537302 1.128996-14.676957-4.139655-13.54796-7.150312-29.353914-14.676957-39.891216h-3.763322c-1.128997 1.128997-4.515987 1.881661-6.397648 2.634325-1.881661 5.268651 1.128997 9.784638 3.010658 14.300625 2.634326 6.397648 3.763322 12.418964 5.644983 19.945608 0.752664 3.010658 2.257993 10.913635 0 13.547961-1.881661 4.892319-17.687615 7.526645-22.956266 10.537302-3.010658 1.505329-6.397648 3.763322-3.763322 7.902977 1.505329 3.38699 4.515987 3.763322 6.77398 5.644983z" fill="#4C3F36" /></svg>