<?xml version="1.0" standalone="no"?><!DOCTYPE svg PUBLIC "-//W3C//DTD SVG 1.1//EN" "http://www.w3.org/Graphics/SVG/1.1/DTD/svg11.dtd"><svg class="icon" width="200px" height="200.00px" viewBox="0 0 1024 1024" version="1.1" xmlns="http://www.w3.org/2000/svg"><path fill="#dbdbdb" d="M294.912 921.6H123.904c-33.792 0-60.928-27.136-60.928-59.904V135.68c0-33.28 27.136-59.904 60.928-59.904h653.312c33.792 0 60.928 27.136 60.928 59.904v151.552c0 10.24 8.192 18.432 18.432 18.432s18.432-8.192 18.432-18.432V135.68c0-53.248-44.032-96.768-98.304-96.768H123.904C69.632 39.424 25.6 82.432 25.6 135.68v725.504c0 53.248 44.032 96.768 98.304 96.768h171.008c10.24 0 18.432-8.192 18.432-18.432 0-9.728-8.192-17.92-18.432-17.92zM151.04 400.384c-10.24 0-18.432 8.192-18.432 18.432s8.192 18.432 18.432 18.432H424.96c10.24 0 18.432-8.192 18.432-18.432S435.2 400.384 424.96 400.384H151.04zM679.936 235.52c0-10.24-8.192-18.432-18.432-18.432H151.04c-10.24 0-18.432 8.192-18.432 18.432s8.192 18.432 18.432 18.432h510.464c10.24 0 18.432-8.192 18.432-18.432z m-380.416 347.648h-148.48c-10.24 0-18.432 8.192-18.432 18.432s8.192 18.432 18.432 18.432h148.48c10.24 0 18.432-8.192 18.432-18.432s-8.192-18.432-18.432-18.432z m655.36 7.68c57.856-56.832 57.856-149.504 0-206.336-57.856-56.832-151.552-56.832-209.408 0-27.648 27.136-43.52 64.512-43.52 102.912 0 5.12 0 9.728 0.512 14.336l-51.712-50.688c-22.528-22.528-59.392-22.528-81.92 0L506.88 513.024c-22.528 22.528-22.528 58.368 0 80.896l59.904 59.392-201.216 198.144c-24.576 24.576-26.624 61.952-4.096 84.48l33.792 33.28c10.24 10.24 24.576 15.872 38.912 15.872h4.096c15.872-1.024 31.232-8.192 42.496-19.456l201.216-198.144 59.904 59.392c10.752 10.752 25.6 16.896 40.96 16.896s30.208-6.144 40.96-16.896l62.464-61.952c22.528-22.528 22.528-58.368 0-80.896l-51.712-51.2c4.608 0.512 9.728 0.512 14.848 0.512 40.448 0 77.824-15.36 105.472-42.496z m-499.712 348.672c-5.12 5.12-11.264 8.192-18.432 8.704-5.12 0.512-10.752-1.536-14.336-5.12l-33.792-33.28c-3.584-4.096-5.632-9.216-5.12-14.336 0.512-7.168 3.584-13.312 8.704-18.432l201.216-198.144 62.976 62.464-201.216 198.144z m406.016-229.888c8.192 8.192 8.192 20.992 0 29.184L798.72 800.768c-8.192 8.192-21.504 8.192-29.696 0L532.992 568.32c-8.192-8.192-8.192-20.992 0-29.184l62.464-61.952c4.096-4.096 9.216-6.144 14.848-6.144 5.632 0 10.752 2.048 14.848 6.144l236.032 232.448z m-89.088-144.384c-43.52-42.496-43.008-111.616 0-154.624l1.024-1.024c43.52-41.984 113.152-41.472 155.648 1.024 43.52 42.496 43.52 111.616 0 154.624-43.52 42.496-113.664 42.496-156.672 0z" /></svg>